<svg xmlns="http://www.w3.org/2000/svg" width="820" height="420" viewBox="0 0 820 420">
<rect width="100%" height="100%" fill="white" />
<text x="410.0" y="35" font-size="16" font-family="Times New Roman, serif" text-anchor="middle">Distribusi SPEI-30 (Hasil Praproses)</text>
<line x1="70" y1="350" x2="790" y2="350" stroke="#333" />
<line x1="70" y1="50" x2="70" y2="350" stroke="#333" />
<rect x="70.0" y="348.8" width="27.0" height="1.2" fill="#60BD68" />
<rect x="100.0" y="348.3" width="27.0" height="1.7" fill="#60BD68" />
<rect x="130.0" y="336.4" width="27.0" height="13.6" fill="#60BD68" />
<rect x="160.0" y="319.8" width="27.0" height="30.2" fill="#60BD68" />
<rect x="190.0" y="293.2" width="27.0" height="56.8" fill="#60BD68" />
<rect x="220.0" y="221.5" width="27.0" height="128.5" fill="#60BD68" />
<rect x="250.0" y="135.4" width="27.0" height="214.6" fill="#60BD68" />
<rect x="280.0" y="97.7" width="27.0" height="252.3" fill="#60BD68" />
<rect x="310.0" y="77.3" width="27.0" height="272.7" fill="#60BD68" />
<rect x="340.0" y="84.7" width="27.0" height="265.3" fill="#60BD68" />
<rect x="370.0" y="65.7" width="27.0" height="284.3" fill="#60BD68" />
<rect x="400.0" y="50.0" width="27.0" height="300.0" fill="#60BD68" />
<rect x="430.0" y="114.5" width="27.0" height="235.5" fill="#60BD68" />
<rect x="460.0" y="147.8" width="27.0" height="202.2" fill="#60BD68" />
<rect x="490.0" y="197.4" width="27.0" height="152.6" fill="#60BD68" />
<rect x="520.0" y="225.7" width="27.0" height="124.3" fill="#60BD68" />
<rect x="550.0" y="271.1" width="27.0" height="78.9" fill="#60BD68" />
<rect x="580.0" y="299.9" width="27.0" height="50.1" fill="#60BD68" />
<rect x="610.0" y="320.0" width="27.0" height="30.0" fill="#60BD68" />
<rect x="640.0" y="335.4" width="27.0" height="14.6" fill="#60BD68" />
<rect x="670.0" y="343.0" width="27.0" height="7.0" fill="#60BD68" />
<rect x="700.0" y="345.5" width="27.0" height="4.5" fill="#60BD68" />
<rect x="730.0" y="349.5" width="27.0" height="0.5" fill="#60BD68" />
<rect x="760.0" y="347.8" width="27.0" height="2.2" fill="#60BD68" />
<text x="85.0" y="368" font-size="11" font-family="Times New Roman, serif" text-anchor="middle">-3.13</text>
<text x="445.0" y="368" font-size="11" font-family="Times New Roman, serif" text-anchor="middle">0.38</text>
<text x="775.0" y="368" font-size="11" font-family="Times New Roman, serif" text-anchor="middle">3.60</text>
<text x="410.0" y="402" font-size="12" font-family="Times New Roman, serif" text-anchor="middle">Nilai SPEI-30</text>
<text x="18" y="210.0" font-size="12" font-family="Times New Roman, serif" text-anchor="middle" transform="rotate(-90, 18, 210.0)">Frekuensi</text>
</svg>